<svg width="27" height="28" viewBox="0 0 27 28" fill="none" xmlns="http://www.w3.org/2000/svg">
  <path fill-rule="evenodd" clip-rule="evenodd"
    d="M12.6236 0.320441C12.8107 0.195748 13.0013 0.0686148 13.2108 0.0154947C13.4967 -0.0570146 13.7892 0.139148 14.0433 0.309548C14.1149 0.357588 14.1835 0.403575 14.248 0.440921C14.4929 0.582695 14.738 0.724135 14.9831 0.865561C15.5687 1.20353 16.1543 1.54145 16.7375 1.88403C17.8215 2.52061 18.9117 3.14688 20.0021 3.77316C21.2161 4.47045 22.4301 5.16776 23.6355 5.87942C24.1443 6.17976 24.6576 6.47364 25.1707 6.76737C25.3332 6.86045 25.4959 6.95351 25.6581 7.04676C25.7401 7.09383 25.8349 7.14112 25.9336 7.19039C26.1816 7.31412 26.4545 7.45035 26.6123 7.62679C26.7104 7.73645 26.7039 7.9035 26.698 8.05118C26.6968 8.08472 26.6955 8.11727 26.6955 8.14792C26.6955 8.27656 26.7016 8.41053 26.7079 8.54629C26.7213 8.84085 26.7352 9.14383 26.6877 9.41908C26.648 9.65011 26.3563 9.79069 26.1153 9.90681C26.0417 9.94224 25.9729 9.97539 25.9175 10.0081C25.4785 10.2673 25.0372 10.5221 24.5957 10.777C24.2581 10.9719 23.9204 11.1669 23.5836 11.3639C22.0684 12.2503 20.5477 13.1273 19.0271 14.0044C18.1944 14.4847 17.3619 14.9649 16.53 15.4467C16.2585 15.6039 15.9881 15.7631 15.7179 15.9223C15.2644 16.1893 14.8109 16.4564 14.3517 16.7143C14.2643 16.7635 14.1728 16.8248 14.0787 16.8879C13.8673 17.0293 13.6425 17.1799 13.4183 17.2232C13.1892 17.2675 12.9195 17.0889 12.6925 16.9388C12.6176 16.8892 12.5473 16.8427 12.4847 16.8083C11.8741 16.4732 11.2733 16.1167 10.6736 15.7608C10.4475 15.6267 10.2215 15.4925 9.99516 15.3597C7.68679 14.0049 5.36969 12.6613 3.04534 11.3338C2.86856 11.2328 2.69116 11.1325 2.51365 11.0321C1.97805 10.7292 1.4416 10.4258 0.918904 10.1036C0.840598 10.0553 0.748984 10.0103 0.654678 9.964C0.455038 9.86595 0.243345 9.76196 0.120371 9.60863C0.0288379 9.49451 0.0325444 9.33903 0.0359577 9.19621C0.0365844 9.16945 0.0372245 9.14312 0.0372112 9.1176C0.0371445 8.98893 0.0284112 8.84876 0.0194245 8.70451C-0.00106882 8.37569 -0.0228954 8.02561 0.0536913 7.74183C0.113718 7.51945 0.393331 7.38133 0.626891 7.26596C0.695971 7.23184 0.761025 7.19971 0.815171 7.16797C1.13314 6.98164 1.45356 6.79885 1.77397 6.61607C2.21717 6.36321 2.6604 6.11036 3.0972 5.84813C4.39144 5.07116 5.70289 4.32199 7.01429 3.57285C7.99305 3.01375 8.97178 2.45464 9.94329 1.88403C10.1311 1.77373 10.3186 1.6626 10.5062 1.5514C11.1089 1.19412 11.7127 0.836268 12.3291 0.504241C12.4277 0.451095 12.5252 0.386108 12.6236 0.320441ZM13.4183 13.5067L4.93837 8.58172L13.4183 3.68225L21.7943 8.58172L13.4183 13.5067Z"
    fill="#64DFAC" />
  <path
    d="M18.9157 8.6583V8.55623C17.6146 7.87459 16.3276 7.09726 15.0778 6.32692C14.674 6.07807 14.2516 5.83106 13.833 5.60807C13.6966 5.5354 13.5113 5.38596 13.3514 5.38055C13.0842 5.37158 12.7093 5.70131 12.4846 5.82967C11.7392 6.25536 10.9968 6.686 10.2544 7.1168C9.65233 7.46619 9.05532 7.8456 8.43917 8.16886C8.29109 8.24654 7.87939 8.40638 7.87939 8.60726C7.87939 8.81927 8.38508 9.01483 8.54289 9.10328C9.1006 9.41598 9.65211 9.7396 10.2026 10.0644C10.4175 10.1913 10.7238 10.4364 10.9805 10.4502C11.2093 10.4625 11.4714 10.2602 11.6548 10.1454C12.0112 9.92242 12.3813 9.72163 12.744 9.508C12.9058 9.41262 13.1214 9.25047 13.3144 9.23567C13.5276 9.21934 13.7633 9.41404 13.9368 9.51566C14.3324 9.74751 14.7304 9.9784 15.1297 10.2037C15.2832 10.2902 15.4668 10.4417 15.6484 10.4561C15.9376 10.4791 16.3422 10.1453 16.5818 10.0055C17.3578 9.55275 18.1388 9.10915 18.9157 8.6583Z"
    fill="white" />
  <path
    d="M26.6437 11.2101C25.2432 12.0536 23.8061 12.8406 22.3909 13.6604C20.5236 14.742 18.6721 15.8557 16.7896 16.9118C15.9731 17.3698 15.1505 17.8336 14.352 18.3202C14.1011 18.4732 13.6165 18.8693 13.3147 18.8488C12.9861 18.8264 12.5555 18.4578 12.2773 18.294C11.502 17.837 10.7199 17.3914 9.94347 16.9364C7.66957 15.6038 5.39248 14.2693 3.09737 12.9745C2.40207 12.5822 1.71788 12.1717 1.0228 11.7791C0.707892 11.6012 0.393012 11.3433 0.0373852 11.2611V13.9661C0.0373852 14.2416 -0.0660413 14.773 0.0906788 15.0108C0.247012 15.248 0.679599 15.386 0.919079 15.532C1.63225 15.9669 2.36487 16.3866 3.09737 16.7888C5.49159 18.1032 7.8496 19.5165 10.2028 20.903C10.9603 21.3493 11.7189 21.7936 12.4848 22.2262C12.7221 22.3604 13.0804 22.6816 13.3665 22.6604C13.5665 22.6456 13.7704 22.475 13.9371 22.3768C14.3149 22.1541 14.694 21.9286 15.078 21.7164C16.5993 20.876 18.0744 19.9568 19.5903 19.1064C21.2984 18.1481 22.9779 17.1398 24.6729 16.16C25.1223 15.9004 25.5692 15.6353 26.0215 15.3808C26.214 15.2724 26.5232 15.1634 26.6423 14.97C26.7847 14.7389 26.6956 14.2794 26.6956 14.017V12.1288C26.6956 11.842 26.7573 11.4763 26.6437 11.2101Z"
    fill="#2DD48E" />
  <path
    d="M0.0373971 16.6709V19.3758C0.0373971 19.6572 -0.0648963 20.1833 0.0907037 20.4282C0.239104 20.662 0.63705 20.7838 0.867224 20.9258C1.6122 21.3849 2.37833 21.8366 3.14925 22.2528C5.53756 23.5421 7.84308 24.9918 10.2028 26.3313C10.8618 26.7053 11.5278 27.0788 12.1737 27.4745C12.5292 27.6924 12.9304 28.006 13.3665 28C13.7949 27.9941 14.2606 27.637 14.6113 27.4144C15.1818 27.0518 15.7901 26.7394 16.3746 26.3986C18.7733 24.9998 21.1912 23.6334 23.5838 22.2237C24.3244 21.7873 25.0754 21.3681 25.814 20.9286C26.0621 20.7809 26.4906 20.6416 26.6424 20.3858C26.7952 20.1285 26.6957 19.6156 26.6957 19.3248V16.6709C26.2426 16.7677 25.791 17.1116 25.399 17.3505C24.7682 17.7352 24.12 18.0949 23.4801 18.4644C21.0945 19.8414 18.7398 21.2885 16.3228 22.6102C15.6212 22.9938 14.9412 23.4149 14.2482 23.8129C14.0081 23.9508 13.6465 24.246 13.3665 24.2665C13.0612 24.2889 12.6374 23.9236 12.3812 23.7793C11.512 23.29 10.6514 22.7834 9.78789 22.2844C7.52157 20.9744 5.26822 19.6429 2.99366 18.3473C2.38528 18.0008 1.78173 17.6438 1.17841 17.2885C0.811104 17.0721 0.440704 16.8154 0.0373971 16.6709Z"
    fill="#269CA5" />
</svg>